# xmcd CD database file generated by Grip 3.3.1
# 
# Track frame offsets:
#       150
#       16909
#       32348
#       48017
#       67333
#       86262
#       103662
#       118725
#       136722
#       150345
#       168763
#       188579
# 
# Disc length: 2744 seconds
# 
# Revision: 1
# Processed by: cddbd v1.5.2PL0 Copyright (c) Steve Scherf et al.
# Submitted via: Grip 3.3.1
# 
DISCID=830ab60c
DTITLE=The Wolfgramm Sisters - The Wolfgramm Sisters
DYEAR=2010
DGENRE=Rock
TTITLE0=Stay With Me
TTITLE1=Sailing Shoes
TTITLE2=If You Think You're Groovy
TTITLE3=Don't Stop
TTITLE4=River Man
TTITLE5=Loving Cup
TTITLE6=Sail On Sailor
TTITLE7=Say You Need Me
TTITLE8=Cry Me A River
TTITLE9=Come Pick Me Up
TTITLE10=King
TTITLE11=River Boulevarde
EXTD=
EXTT0=
EXTT1=
EXTT2=
EXTT3=
EXTT4=
EXTT5=
EXTT6=
EXTT7=
EXTT8=
EXTT9=
EXTT10=
EXTT11=
PLAYORDER=
